# xmcd CD database file
#
# Track frame offsets:
#	150
#	49945
#	85335
#	140882
#	171232
#
# Disc length: 2844 seconds
#
# Revision: 0
# Processed by: cddbd v1.5.2PL0 Copyright (c) Steve Scherf et al.
# Submitted via: CDex 1.70beta2
#
DISCID=460b1a05
DTITLE=Makiko Hirohashi - 便秘すっきり
DYEAR=1996
DGENRE=New Age
TTITLE0=水平線をこえて
TTITLE1=時の岸辺
TTITLE2=雲と風
TTITLE3=Ｂｏｎ　ｖｏｙａｇｅ
TTITLE4=水の大陸～ｓｕｎｓｅｔ
EXTD=YEAR: 1996
EXTT0=
EXTT1=
EXTT2=
EXTT3=
EXTT4=
PLAYORDER=
